<svg width="21" height="21" viewBox="0 0 21 21" fill="none" xmlns="http://www.w3.org/2000/svg">
<path d="M1.62918 19.7515L19.7514 1.62931C19.923 1.45766 20.0359 1.2413 20.0652 1.02784C20.0945 0.814369 20.0378 0.62128 19.9076 0.491046C19.7773 0.360813 19.5842 0.304102 19.3708 0.333391C19.1573 0.362679 18.9409 0.475568 18.7693 0.647221L0.647085 18.7694C0.475431 18.9411 0.362543 19.1574 0.333254 19.3709C0.303966 19.5844 0.360676 19.7775 0.49091 19.9077C0.621143 20.0379 0.814232 20.0946 1.0277 20.0653C1.24117 20.0361 1.45752 19.9232 1.62918 19.7515Z" fill="currentColor"/>
<path d="M18.7693 19.7515L0.647062 1.62931C0.475408 1.45766 0.36252 1.2413 0.333232 1.02784C0.303943 0.814369 0.360654 0.62128 0.490887 0.491046C0.621121 0.360813 0.814209 0.304102 1.02768 0.333391C1.24114 0.362679 1.4575 0.475568 1.62915 0.647221L19.7514 18.7694C19.923 18.9411 20.0359 19.1574 20.0652 19.3709C20.0945 19.5844 20.0378 19.7775 19.9075 19.9077C19.7773 20.0379 19.5842 20.0946 19.3707 20.0653C19.1573 20.0361 18.9409 19.9232 18.7693 19.7515Z" fill="currentColor"/>
</svg>
