<svg width="25" height="25" viewBox="0 0 25 25" fill="none" xmlns="http://www.w3.org/2000/svg">
<path d="M22.2209 20.1389H2.77648C2.5923 20.1389 2.41566 20.0657 2.28543 19.9355C2.1552 19.8053 2.08203 19.6286 2.08203 19.4444C2.08203 19.2603 2.1552 19.0836 2.28543 18.9534C2.41566 18.8232 2.5923 18.75 2.77648 18.75H22.2209C22.4051 18.75 22.5817 18.8232 22.712 18.9534C22.8422 19.0836 22.9154 19.2603 22.9154 19.4444C22.9154 19.6286 22.8422 19.8053 22.712 19.9355C22.5817 20.0657 22.4051 20.1389 22.2209 20.1389Z" fill="currentColor"/>
<path d="M22.2209 13.1944H2.77648C2.5923 13.1944 2.41566 13.1213 2.28543 12.991C2.1552 12.8608 2.08203 12.6842 2.08203 12.5C2.08203 12.3158 2.1552 12.1392 2.28543 12.0089C2.41566 11.8787 2.5923 11.8055 2.77648 11.8055H22.2209C22.4051 11.8055 22.5817 11.8787 22.712 12.0089C22.8422 12.1392 22.9154 12.3158 22.9154 12.5C22.9154 12.6842 22.8422 12.8608 22.712 12.991C22.5817 13.1213 22.4051 13.1944 22.2209 13.1944Z" fill="currentColor"/>
<path d="M22.2209 6.24997H2.77648C2.5923 6.24997 2.41566 6.17681 2.28543 6.04657C2.1552 5.91634 2.08203 5.73971 2.08203 5.55553C2.08203 5.37135 2.1552 5.19472 2.28543 5.06448C2.41566 4.93425 2.5923 4.86108 2.77648 4.86108H22.2209C22.4051 4.86108 22.5817 4.93425 22.712 5.06448C22.8422 5.19472 22.9154 5.37135 22.9154 5.55553C22.9154 5.73971 22.8422 5.91634 22.712 6.04657C22.5817 6.17681 22.4051 6.24997 22.2209 6.24997Z" fill="currentColor"/>
</svg>
