<svg width="1022" height="333" viewBox="0 0 1022 333" fill="none" xmlns="http://www.w3.org/2000/svg">
<mask id="mask0_4017_5" style="mask-type:alpha" maskUnits="userSpaceOnUse" x="0" y="0" width="721" height="227">
<rect width="721" height="227" fill="#D9D9D9"/>
</mask>
<g mask="url(#mask0_4017_5)">
<path d="M715.513 62.9691C749.768 60.7903 782.152 80.3996 790.657 113.745H766.446C745.67 69.3871 678.178 79.6417 671.118 128.286C661.903 191.874 739.558 214.799 766.446 163.265C774.619 163.36 782.792 163.479 790.988 163.573C761.968 246.913 639.8 221.075 646.907 130.749C649.75 94.6803 679.22 65.2663 715.536 62.9454L715.513 62.9691Z" fill="#252525"/>
<path d="M96.0274 65.6864C120.594 65.7575 165.865 62.134 183.277 71.8676C215.4 89.8191 212.936 148.718 168.684 156.368C182.874 174.84 197.041 193.313 211.231 211.785H183.277C169.418 193.62 155.536 175.456 141.678 157.291C134.121 157.386 126.563 157.504 119.006 157.599V211.761H96.0274C96.1221 163.164 95.9326 114.26 96.0274 65.6391V65.6864ZM119.006 87.9718C118.793 104.076 119.22 120.157 119.006 136.261C136.963 136.569 179.297 140.974 181.121 117.386C183.68 83.8274 142.151 87.9718 119.006 87.9718Z" fill="#252525"/>
<path d="M225.525 65.4043C256.891 65.499 288.256 65.3096 319.621 65.4043C319.527 72.7223 319.716 80.3718 319.621 87.6897C295.908 87.9976 271.91 88.3055 248.197 88.6134C248.505 101.094 247.889 113.575 248.197 126.079C270.039 126.174 291.881 126.293 313.723 126.387C313.415 133.705 314.03 141.047 313.723 148.365H248.197C248.102 161.675 248.291 174.984 248.197 188.294C271.91 188.389 295.908 188.507 319.621 188.602V211.811C288.043 211.503 256.18 212.119 224.602 211.811C224.91 163.427 225.217 113.788 225.525 65.4043Z" fill="#252525"/>
<path d="M335.121 65.4043C342.678 65.499 350.543 65.3096 358.1 65.4043C358.195 87.3819 358.005 109.667 358.1 131.645C377.549 109.573 397.33 87.4766 416.78 65.4043C426.398 65.499 436.04 65.3096 445.658 65.4043C425.166 89.1344 404.674 113.172 384.183 136.902C405.598 161.769 427.037 186.944 448.453 211.811H419.883C399.605 188.697 378.379 165.274 358.1 142.184C357.792 165.203 358.408 188.815 358.1 211.811H335.121C335.216 163.214 335.026 114.001 335.121 65.4043Z" fill="#252525"/>
<path d="M462.457 65.4043C470.014 65.499 477.879 65.3096 485.436 65.4043C485.341 114.001 485.531 163.214 485.436 211.811C477.879 211.716 470.014 211.906 462.457 211.811C462.552 163.214 462.362 114.001 462.457 65.4043Z" fill="#252525"/>
<path d="M508.402 65.4004H535.409C559.62 102.748 583.854 140.096 608.065 177.467C607.544 140.214 608.586 102.653 608.065 65.4004H629.481C629.386 113.997 629.576 163.21 629.481 211.807H602.474C578.263 174.459 554.029 136.804 529.818 99.4562C530.339 136.709 529.297 174.554 529.818 211.807H508.402C508.497 163.21 508.308 113.997 508.402 65.4004Z" fill="#252525"/>
</g>
<mask id="mask1_4017_5" style="mask-type:alpha" maskUnits="userSpaceOnUse" x="721" y="0" width="301" height="333">
<rect x="721" width="301" height="333" fill="#D9D9D9"/>
</mask>
<g mask="url(#mask1_4017_5)">
<path d="M715.545 63.4678C749.389 61.3153 781.332 80.5517 790.01 113.245H766.76C745.612 68.7631 677.737 79.1942 670.623 128.214C665.98 160.251 683.237 182.107 705.085 189.421C726.844 196.704 753.133 189.548 766.742 163.769C770.728 163.815 774.713 163.867 778.702 163.919C782.559 163.969 786.418 164.019 790.283 164.064C775.701 204.959 738.399 219.045 705.508 211.798C672.444 204.513 643.873 175.676 647.405 130.788C650.194 95.4088 678.781 66.475 714.23 63.543L714.222 63.5527L715.545 63.4678Z" stroke="#252525"/>
<path d="M869.573 63.418C895.132 61.8926 914.567 70.1778 927.866 83.5156C941.174 96.8625 948.37 115.301 949.373 134.12C950.376 152.94 945.183 172.106 933.76 186.899C922.344 201.683 904.687 212.126 880.696 213.491C855.274 214.934 835.94 206.623 822.706 193.29C809.463 179.948 802.299 161.544 801.295 142.762C800.291 123.979 805.449 104.852 816.806 90.0723C828.155 75.3023 845.713 64.8471 869.573 63.417V63.418ZM912.997 100.248C903.918 90.3164 890.445 83.9936 872.626 84.7275C856.023 85.4084 843.605 92.4913 835.409 102.741C827.222 112.981 823.267 126.358 823.523 139.621C823.78 152.885 828.249 166.073 836.959 175.929C845.678 185.795 858.621 192.295 875.752 192.205C893.078 192.116 906.036 185.17 914.587 174.827C923.129 164.496 927.253 150.802 926.987 137.23C926.722 123.659 922.066 110.169 912.997 100.248Z" stroke="#252525"/>
</g>
</svg>
