<svg width="147" height="27" viewBox="0 0 147 27" fill="none" xmlns="http://www.w3.org/2000/svg">
<path d="M106.616 0.0400171C112.511 -0.334952 118.084 3.03977 119.548 8.77843H115.381C111.806 1.14455 100.191 2.90935 98.9757 11.2809C97.3898 22.2243 110.754 26.1697 115.381 17.3008C116.788 17.3171 118.195 17.3375 119.605 17.3538C114.611 31.6964 93.586 27.2498 94.8091 11.7048C95.2983 5.49745 100.37 0.435364 106.62 0.0359405L106.616 0.0400171Z" fill="white"/>
<path d="M133.126 0.0311609C150.812 -1.02446 151.664 25.0848 135.05 26.0304C117.458 27.029 116.602 1.02157 133.126 0.0311609ZM133.66 3.87052C122.33 4.33516 122.497 22.2563 134.194 22.1951C146.021 22.134 145.83 3.3692 133.66 3.87052Z" fill="white"/>
<path d="M0.00470768 0.506996C4.23253 0.519224 12.0236 -0.104367 15.0202 1.57077C20.5486 4.66019 20.1246 14.7966 12.5088 16.1131C14.9509 19.2921 17.3889 22.4712 19.831 25.6503H15.0202C12.6352 22.5242 10.2461 19.3981 7.86103 16.272C6.56047 16.2883 5.25992 16.3087 3.95937 16.325V25.6462H0.00470768C0.0210156 17.2828 -0.0116002 8.86637 0.00470768 0.498846V0.506996ZM3.95937 4.34228C3.92267 7.11379 3.99606 9.88123 3.95937 12.6527C7.04971 12.7057 14.3353 13.4638 14.6492 9.40437C15.0895 3.62902 7.94257 4.34228 3.95937 4.34228Z" fill="white"/>
<path d="M22.2918 0.458808C27.6897 0.475111 33.0876 0.442505 38.4855 0.458808C38.4692 1.71822 38.5018 3.03468 38.4855 4.29409C34.4045 4.34708 30.2745 4.40006 26.1935 4.45305C26.2465 6.60097 26.1405 8.74889 26.1935 10.9009C29.9524 10.9172 33.7114 10.9376 37.4704 10.9539C37.4174 12.2133 37.5234 13.4768 37.4704 14.7362H26.1935C26.1772 17.0268 26.2098 19.3173 26.1935 21.6079C30.2745 21.6242 34.4045 21.6446 38.4855 21.6609V25.6551C33.0509 25.6021 27.5674 25.7081 22.1328 25.6551C22.1858 17.3284 22.2388 8.78557 22.2918 0.458808Z" fill="white"/>
<path d="M41.1531 0.458808C42.4537 0.475111 43.8073 0.442505 45.1078 0.458808C45.1241 4.24111 45.0915 8.07639 45.1078 11.8587C48.455 8.06009 51.8593 4.25741 55.2065 0.458808C56.8617 0.475111 58.521 0.442505 60.1763 0.458808C56.6497 4.54271 53.1231 8.6796 49.5965 12.7635C53.2821 17.0431 56.9718 21.3756 60.6574 25.6551H55.7405C52.2507 21.6772 48.5977 17.6463 45.1078 13.6724C45.0548 17.634 45.1608 21.6976 45.1078 25.6551H41.1531C41.1695 17.2917 41.1368 8.82226 41.1531 0.458808Z" fill="white"/>
<path d="M63.0672 0.458808C64.3678 0.475111 65.7213 0.442505 67.0219 0.458808C67.0056 8.82226 67.0382 17.2917 67.0219 25.6551C65.7213 25.6388 64.3678 25.6714 63.0672 25.6551C63.0835 17.2917 63.0509 8.82226 63.0672 0.458808Z" fill="white"/>
<path d="M70.9735 0.458008H75.6212C79.7879 6.88547 83.9586 13.3129 88.1253 19.7445C88.0356 13.3333 88.215 6.86917 88.1253 0.458008H91.8108C91.7945 8.82146 91.8272 17.2909 91.8108 25.6543H87.1631C82.9964 19.2269 78.8257 12.7464 74.659 6.31894C74.7487 12.7301 74.5693 19.2432 74.659 25.6543H70.9735C70.9898 17.2909 70.9571 8.82146 70.9735 0.458008Z" fill="white"/>
</svg>
