<svg width="182" height="58" viewBox="0 0 182 58" fill="none" xmlns="http://www.w3.org/2000/svg">
<path d="M124.1 15.7314C129.996 15.3573 135.569 18.7234 137.032 24.4474H132.866C129.29 16.8331 117.675 18.5933 116.46 26.9435C114.874 37.8589 128.238 41.7942 132.866 32.948C134.272 32.9643 135.679 32.9846 137.09 33.0009C132.095 47.3067 111.07 42.8715 112.293 27.3663C112.783 21.1748 117.854 16.1257 124.104 15.7273L124.1 15.7314Z" fill="black"/>
<path d="M150.61 15.7264C168.296 14.6735 169.148 40.716 152.535 41.6591C134.943 42.6551 134.086 16.7143 150.61 15.7264ZM151.144 19.5559C139.815 20.0194 139.982 37.8946 151.679 37.8336C163.506 37.7727 163.314 19.0559 151.144 19.5559Z" fill="black"/>
<path d="M17.4891 16.2011C21.7169 16.2133 29.508 15.5913 32.5046 17.2621C38.0329 20.3436 37.6089 30.4541 29.9931 31.7672C32.4353 34.9382 34.8733 38.1091 37.3154 41.2801H32.5046C30.1195 38.162 27.7304 35.0438 25.3454 31.9257C24.0448 31.942 22.7443 31.9623 21.4437 31.9786V41.276H17.4891C17.5054 32.9339 17.4728 24.5391 17.4891 16.1929V16.2011ZM21.4437 20.0265C21.407 22.791 21.4804 25.5513 21.4437 28.3157C24.5341 28.3686 31.8196 29.1247 32.1336 25.0757C32.5739 19.3151 25.4269 20.0265 21.4437 20.0265Z" fill="black"/>
<path d="M39.7762 16.1531C45.1741 16.1694 50.572 16.1369 55.9699 16.1531C55.9536 17.4093 55.9862 18.7224 55.9699 19.9786C51.8889 20.0315 47.7589 20.0843 43.6778 20.1372C43.7308 22.2796 43.6248 24.422 43.6778 26.5685C47.4368 26.5848 51.1958 26.6051 54.9547 26.6213C54.9017 27.8775 55.0077 29.1378 54.9547 30.394H43.6778C43.6615 32.6787 43.6942 34.9634 43.6778 37.2481C47.7589 37.2644 51.8889 37.2847 55.9699 37.301V41.285C50.5353 41.2321 45.0518 41.3378 39.6172 41.285C39.6702 32.9795 39.7232 24.4586 39.7762 16.1531Z" fill="black"/>
<path d="M58.6375 16.1531C59.9381 16.1694 61.2916 16.1369 62.5922 16.1531C62.6085 19.9258 62.5759 23.7512 62.5922 27.5238C65.9394 23.735 69.3436 19.942 72.6908 16.1531C74.3461 16.1694 76.0054 16.1369 77.6607 16.1531C74.1341 20.2266 70.6075 24.3529 67.0809 28.4263C70.7665 32.6949 74.4562 37.0164 78.1417 41.285H73.2249C69.735 37.3172 66.0821 33.2966 62.5922 29.3329C62.5392 33.2844 62.6452 37.3375 62.5922 41.285H58.6375C58.6538 32.9429 58.6212 24.4952 58.6375 16.1531Z" fill="black"/>
<path d="M80.5516 16.1531C81.8521 16.1694 83.2057 16.1369 84.5062 16.1531C84.4899 24.4952 84.5225 32.9429 84.5062 41.285C83.2057 41.2687 81.8521 41.3012 80.5516 41.285C80.5679 32.9429 80.5353 24.4952 80.5516 16.1531Z" fill="black"/>
<path d="M88.4578 16.1523H93.1056C97.2722 22.5634 101.443 28.9744 105.61 35.3895C105.52 28.9947 105.699 22.5471 105.61 16.1523H109.295C109.279 24.4944 109.312 32.9421 109.295 41.2842H104.647C100.481 34.8732 96.3101 28.4093 92.1434 21.9983C92.2331 28.393 92.0537 34.8894 92.1434 41.2842H88.4578C88.4741 32.9421 88.4415 24.4944 88.4578 16.1523Z" fill="black"/>
</svg>
