<svg width="708" height="189" viewBox="0 0 708 189" fill="none" xmlns="http://www.w3.org/2000/svg">
<path d="M0.0213858 47.1361C19.2273 47.1919 54.6203 44.3486 68.233 51.9864C93.3471 66.0728 91.4209 112.29 56.8243 118.293C67.9182 132.788 78.9935 147.283 90.0874 161.778H68.233C57.3984 147.525 46.5453 133.271 35.7107 119.017C29.8026 119.092 23.8945 119.185 17.9864 119.259V161.76H0.0213858C0.0954685 123.626 -0.0526969 85.2511 0.0213858 47.0989V47.1361ZM17.9864 64.6233C17.8197 77.2601 18.1531 89.8784 17.9864 102.515C32.0251 102.757 65.1215 106.213 66.5476 87.7041C68.5479 61.3711 36.0811 64.6233 17.9864 64.6233Z" fill="white"/>
<path d="M101.254 46.9119C125.775 46.9862 144.284 46.8375 168.805 46.9119C168.731 52.6542 165.962 58.6567 165.887 64.399C147.348 64.6406 137.517 64.8822 118.978 65.1238C119.219 74.9174 118.737 84.7109 118.978 94.523C136.054 94.5974 128.388 94.6903 145.464 94.7646C145.223 100.507 140.498 102.574 137.926 112.01H118.978C118.904 122.454 119.052 132.898 118.978 143.342C137.517 143.417 142.485 143.509 161.025 143.584V161.796C136.337 161.554 125.219 162.037 100.531 161.796C100.772 123.829 101.013 84.8782 101.254 46.9119Z" fill="white"/>
<mask id="mask0_2410_507" style="mask-type:alpha" maskUnits="userSpaceOnUse" x="135" y="0" width="516" height="189">
<path d="M534.917 1.38379C537.284 0.885463 542.008 0.878468 547.94 1.22461C553.85 1.56938 560.895 2.25991 567.863 3.12695C574.832 3.99397 581.717 5.03647 587.306 6.08691C590.101 6.61221 592.567 7.13872 594.556 7.64453C596.555 8.15311 598.036 8.63271 598.884 9.05664C600.584 9.90692 602.169 11.4451 603.723 13.5225C605.274 15.5966 606.771 18.1732 608.311 21.0605C611.378 26.8128 614.617 33.8037 618.746 40.2549C622.836 46.6451 624.615 50.7149 626.337 56.8369C627.202 59.9113 628.051 63.5001 629.169 68.166C630.286 72.8285 631.67 78.5548 633.601 85.8896V85.8906C635.915 94.6334 636.553 97.5723 636.935 99.7988C637.318 102.035 637.449 103.6 638.738 109.529C640.02 115.427 640.66 120.037 641.369 124.482C642.078 128.927 642.854 133.196 644.406 138.37C647.508 148.709 650.043 153.752 650.043 164.458V174.811C635.885 176.353 614.072 178.613 594.061 180.445C573.819 182.298 555.469 183.708 548.717 183.504C531.738 182.989 252.923 187.618 247.291 187.618C246.623 187.618 244.779 187.431 242.019 187.07C239.275 186.711 235.66 186.186 231.48 185.52C223.121 184.187 212.505 182.291 202.068 180.043C191.627 177.794 181.382 175.196 173.755 172.459C169.938 171.089 166.802 169.693 164.63 168.303C163.544 167.607 162.72 166.926 162.172 166.269C161.625 165.611 161.38 165.01 161.38 164.458V138.227C161.38 137.767 161.466 137.265 161.587 136.643C161.706 136.031 161.856 135.318 161.955 134.492C162.155 132.825 162.152 130.702 161.362 127.808C160.677 125.294 158.015 123.523 155.244 122.615C153.838 122.155 152.357 121.899 150.998 121.882C149.687 121.865 148.448 122.071 147.497 122.566C146.208 122.745 144.895 123.061 143.652 123.375C142.37 123.699 141.174 124.019 140.112 124.203C139.04 124.389 138.19 124.421 137.579 124.231C137.285 124.14 137.056 124 136.881 123.806C136.705 123.611 136.559 123.336 136.472 122.941C135.961 120.642 135.894 119.804 136.165 118.604C136.308 117.972 136.544 117.245 136.884 116.161C137.221 115.086 137.652 113.689 138.169 111.751C139.202 107.877 140.049 104.439 141.151 101.448C142.25 98.4655 143.588 95.9701 145.574 93.9834C147.669 91.889 152.125 85.8946 156.416 79.8262C160.717 73.744 164.899 67.521 166.452 64.9316C168.013 62.3298 168.691 60.852 169.09 58.2568C169.48 55.7237 169.61 52.0771 170.122 45.166L170.124 45.1475V31.4941C172.151 30.0182 176.984 26.4745 181.754 22.8975C183.212 21.8041 184.96 21.1501 187.427 20.7402C189.904 20.3287 193.071 20.1678 197.35 20.0391C205.896 19.782 218.771 19.6533 239.105 17.8516C279.714 14.2534 322.36 16.3129 331.562 17.8467C332.195 17.9521 333.506 17.9776 335.354 17.9453C337.221 17.9127 339.684 17.8191 342.656 17.6729C348.602 17.3803 356.596 16.8758 365.956 16.2207C384.677 14.9105 408.87 12.998 433.078 10.9727C457.286 8.9473 481.51 6.80905 500.294 5.04883C509.686 4.16873 517.719 3.3831 523.71 2.75293C529.684 2.12456 533.664 1.64767 534.917 1.38379Z" fill="#D9D9D9" stroke="white"/>
</mask>
<g mask="url(#mask0_2410_507)">
<path d="M484.369 45.4977C510.739 43.8142 535.617 58.8272 542.438 84.3424H524.472C507.857 49.4084 454.708 57.6368 449.135 96.1812C445.498 121.372 459.019 138.57 476.149 144.326C493.192 150.052 513.78 144.435 524.455 124.203C527.548 124.239 530.642 124.28 533.737 124.321C536.702 124.36 539.669 124.397 542.64 124.432C531.224 156.357 502.168 167.345 476.539 161.677C450.738 155.971 428.444 133.389 431.2 98.2242C433.368 70.6115 455.527 48.0126 483.05 45.5807V45.5816L484.369 45.4977Z" stroke="white"/>
<path d="M604.787 45.4604C624.739 44.2651 639.902 50.7563 650.276 61.1987C660.659 71.6505 666.277 86.0933 667.06 100.838C667.842 115.584 663.788 130.597 654.875 142.182C645.97 153.757 632.195 161.937 613.471 163.006C593.626 164.137 578.541 157.626 568.218 147.187C557.886 136.739 552.294 122.324 551.51 107.608C550.726 92.8911 554.753 77.9075 563.614 66.3325C572.468 54.7679 586.165 46.5808 604.787 45.4604ZM638.812 74.1811C631.803 66.4852 621.455 61.5457 607.815 61.9438L607.163 61.9673C594.151 62.5029 584.413 68.0756 577.986 76.143C571.568 84.2002 568.469 94.7219 568.67 105.151C568.871 115.58 572.373 125.954 579.201 133.709C586.039 141.475 596.188 146.588 609.612 146.518C623.191 146.448 633.352 140.983 640.058 132.842C646.754 124.713 649.984 113.942 649.776 103.271C649.568 92.5999 645.922 81.9882 638.812 74.1811Z" stroke="white"/>
<path d="M138.044 47.4122C150.137 47.3938 162.229 47.3751 174.32 47.4102C174.291 50.1259 174.308 52.8953 174.325 55.6592C174.343 58.4299 174.358 61.1954 174.329 63.9053C155.986 64.1443 137.317 64.3851 118.979 64.6241L118.474 64.6309L118.485 65.1368C118.605 70.0227 118.546 74.9101 118.485 79.8106C118.425 84.708 118.365 89.6186 118.485 94.5352L118.498 95.0215L118.983 95.0235C127.521 95.0607 136.06 95.1028 144.598 95.1446C152.963 95.1856 161.329 95.2252 169.695 95.2618C169.601 97.9788 169.657 100.697 169.714 103.398C169.771 106.116 169.825 108.817 169.73 111.511H118.489L118.485 112.007C118.448 117.232 118.467 122.456 118.485 127.678C118.504 132.9 118.522 138.12 118.485 143.339L118.482 143.841L118.983 143.843C128.253 143.88 137.578 143.921 146.903 143.963C156.061 144.004 165.22 144.044 174.325 144.081V161.291C165.231 161.206 156.108 161.218 146.979 161.254L128.381 161.338C119.252 161.374 110.132 161.385 101.042 161.3C101.161 142.479 101.281 123.418 101.4 104.357C101.52 85.2962 101.638 66.2346 101.758 47.4131C113.854 47.4483 125.949 47.4305 138.044 47.4122Z" stroke="white"/>
<path d="M262.083 47.4122C265.487 47.3954 268.888 47.38 272.285 47.4044C268.515 51.7886 264.744 56.1861 260.974 60.5899L236.942 88.6876C232.938 93.3649 228.933 98.0349 224.929 102.69L224.648 103.016L224.928 103.342C229.113 108.22 233.3 113.112 237.487 118.013L262.614 147.448C266.566 152.073 270.518 156.691 274.468 161.296H253.445C245.564 152.282 237.501 143.208 229.44 134.139C221.328 125.012 213.217 115.889 205.292 106.831L204.434 105.85L204.416 107.153C204.296 116.191 204.356 125.344 204.416 134.488C204.475 143.468 204.534 152.44 204.422 161.296H187.452C187.488 142.393 187.47 123.373 187.451 104.354C187.433 85.3346 187.414 66.3165 187.45 47.4161C190.248 47.4454 193.095 47.4297 195.937 47.4122C198.784 47.3946 201.626 47.3779 204.417 47.4073C204.451 55.8661 204.434 64.3825 204.416 72.9005C204.397 81.5833 204.379 90.268 204.416 98.8926L204.422 100.211L205.292 99.2208C209.093 94.8912 212.91 90.56 216.735 86.2286L239.722 60.2364C243.497 55.9614 247.265 51.6866 251.017 47.4131C254.704 47.4474 258.396 47.4304 262.083 47.4122Z" stroke="white"/>
<path d="M295.468 47.4122C298.314 47.3946 301.156 47.378 303.946 47.4073C303.911 66.3116 303.929 85.3335 303.947 104.355C303.966 123.373 303.983 142.391 303.947 161.291C301.15 161.262 298.304 161.278 295.462 161.296C292.615 161.314 289.773 161.329 286.982 161.3C287.018 142.396 287.001 123.374 286.982 104.354C286.964 85.3346 286.946 66.3165 286.981 47.4161C289.779 47.4454 292.626 47.4297 295.468 47.4122Z" stroke="white"/>
<path d="M343.253 47.414C362.132 76.6445 381.029 105.874 399.908 135.123L400.853 136.586L400.828 134.845C400.624 120.235 400.726 105.564 400.828 90.8867C400.929 76.3808 401.028 61.8685 400.834 47.414H416.57C416.535 66.3168 416.553 85.337 416.571 104.356C416.59 123.377 416.608 142.396 416.572 161.298H396.23C386.816 146.721 377.396 132.084 367.977 117.447C358.508 102.734 349.039 88.0198 339.574 73.3662L338.631 71.9043L338.654 73.6445C338.858 88.2542 338.756 102.981 338.654 117.714C338.554 132.275 338.454 146.842 338.648 161.298H322.913C322.949 142.395 322.93 123.375 322.912 104.355C322.894 85.3351 322.875 66.3157 322.911 47.414H343.253Z" stroke="white"/>
</g>
<mask id="mask1_2410_507" style="mask-type:alpha" maskUnits="userSpaceOnUse" x="605" y="33" width="103" height="156">
<path d="M628.939 122.889L636.902 157.86C639.988 160.603 646.325 171.65 647.97 181.525C650.028 193.87 655.171 186.669 688.604 177.925C722.037 169.181 700.434 127.004 699.406 104.887C698.583 87.1932 682.603 55.3376 674.717 41.6215L610.423 33.9062L605.812 43.4443L611.119 54.1922L617.109 67.3392C619.51 75.7402 624.31 92.851 624.31 94.0855C624.31 95.3199 627.396 113.802 628.939 122.889Z" fill="#D9D9D9"/>
</mask>
<g mask="url(#mask1_2410_507)">
<path d="M604.75 44.9609C685.092 40.1477 688.963 159.194 613.491 163.506C533.575 168.059 529.685 49.4767 604.75 44.9609ZM607.176 62.4666C555.707 64.5852 556.466 146.297 609.602 146.018C663.331 145.74 662.46 60.1809 607.176 62.4666Z" fill="white"/>
</g>
</svg>
