<svg width="195" height="35" viewBox="0 0 195 35" fill="none" xmlns="http://www.w3.org/2000/svg">
<path d="M141.458 0.0477742C149.28 -0.455861 156.674 4.07685 158.616 11.7847H153.088C148.344 1.53131 132.933 3.90167 131.321 15.1459C129.217 29.8443 146.948 35.1435 153.088 23.2314C154.954 23.2533 156.82 23.2807 158.692 23.3026C152.066 42.5666 124.17 36.5941 125.793 15.7152C126.442 7.37785 133.171 0.578779 141.463 0.0422987L141.458 0.0477742Z" fill="black"/>
<path d="M176.63 0.0418533C200.096 -1.37599 201.226 33.6923 179.184 34.9624C155.842 36.3036 154.706 1.37211 176.63 0.0418533ZM177.339 5.19863C162.306 5.8227 162.528 29.8932 178.048 29.811C193.74 29.7289 193.486 4.5253 177.339 5.19863Z" fill="black"/>
<path d="M0.00624614 0.681243C5.61571 0.697666 15.9529 -0.1399 19.9288 2.11003C27.2638 6.25955 26.7012 19.8741 16.5966 21.6423C19.8368 25.9123 23.0716 30.1822 26.3118 34.4521H19.9288C16.7643 30.2534 13.5945 26.0546 10.43 21.8558C8.70443 21.8777 6.97886 21.9051 5.25328 21.927V34.4467H0.00624614C0.0278834 23.2134 -0.0153911 11.909 0.00624614 0.670296V0.681243ZM5.25328 5.83255C5.2046 9.55507 5.30197 13.2721 5.25328 16.9946C9.35355 17.0658 19.02 18.084 19.4365 12.6316C20.0207 4.87455 10.5382 5.83255 5.25328 5.83255Z" fill="black"/>
<path d="M29.5762 0.616184C36.7381 0.638082 43.9001 0.594287 51.062 0.616184C51.0404 2.30774 51.0837 4.07594 51.062 5.76749C45.6473 5.83866 40.1676 5.90982 34.7529 5.98099C34.8232 8.86594 34.6826 11.7509 34.7529 14.6413C39.7403 14.6632 44.7277 14.6906 49.7151 14.7125C49.6448 16.404 49.7854 18.1011 49.7151 19.7926H34.7529C34.7313 22.8692 34.7746 25.9457 34.7529 29.0223C40.1676 29.0442 45.6473 29.0716 51.062 29.0934V34.4583C43.8514 34.3871 36.5759 34.5294 29.3652 34.4583C29.4356 23.2743 29.5059 11.8002 29.5762 0.616184Z" fill="black"/>
<path d="M54.6 0.616184C56.3256 0.638082 58.1215 0.594287 59.847 0.616184C59.8687 5.69633 59.8254 10.8476 59.847 15.9278C64.2881 10.8257 68.8049 5.71822 73.2459 0.616184C75.4421 0.638082 77.6437 0.594287 79.8399 0.616184C75.1608 6.10142 70.4818 11.6578 65.8027 17.1431C70.6927 22.8911 75.5882 28.7103 80.4782 34.4583H73.9545C69.3242 29.1153 64.4774 23.7013 59.847 18.3638C59.7767 23.6849 59.9174 29.1427 59.847 34.4583H54.6C54.6216 23.225 54.5784 11.8494 54.6 0.616184Z" fill="black"/>
<path d="M83.6781 0.616184C85.4037 0.638082 87.1996 0.594287 88.9252 0.616184C88.9035 11.8494 88.9468 23.225 88.9252 34.4583C87.1996 34.4364 85.4037 34.4801 83.6781 34.4583C83.6998 23.225 83.6565 11.8494 83.6781 0.616184Z" fill="black"/>
<path d="M94.1684 0.615723H100.335C105.863 9.24868 111.397 17.8816 116.925 26.5201C116.806 17.909 117.044 9.22678 116.925 0.615723H121.815C121.794 11.849 121.837 23.2245 121.815 34.4578H115.649C110.12 25.8248 104.587 17.1207 99.0584 8.48775C99.1774 17.0988 98.9394 25.8467 99.0584 34.4578H94.1684C94.19 23.2245 94.1467 11.849 94.1684 0.615723Z" fill="black"/>
</svg>
