<svg width="0" height="0" class="hidden">
  <symbol fill="none" xmlns="http://www.w3.org/2000/svg" viewBox="0 0 20 20" id="ic_arrow_hor">
    <path d="M11 1L2 10L11 19" stroke="currentColor" stroke-width="2"></path>
    <line y1="-1" x2="18" y2="-1" transform="matrix(1 0 0 -1 2 9)" stroke="currentColor" stroke-width="2"></line>
  </symbol>
  <symbol fill="none" xmlns="http://www.w3.org/2000/svg" viewBox="0 0 25 25" id="ic_arrow_hor2">
    <path d="M12 1L23.3401 12.3401L12 23.6802" stroke="currentColor"></path>
    <line x1="23.3359" y1="12.3672" x2="0.655771" y2="12.3672" stroke="currentColor"></line>
  </symbol>
  <symbol fill="none" xmlns="http://www.w3.org/2000/svg" viewBox="0 0 17 15" id="ic_check">
    <path d="M1 7.875L5.90675 12L15 1" stroke="currentColor" stroke-width="3"></path>
  </symbol>
  <symbol fill="none" xmlns="http://www.w3.org/2000/svg" viewBox="0 0 21 21" id="ic_close">
    <path d="M1.62918 19.7515L19.7514 1.62931C19.923 1.45766 20.0359 1.2413 20.0652 1.02784C20.0945 0.814369 20.0378 0.62128 19.9076 0.491046C19.7773 0.360813 19.5842 0.304102 19.3708 0.333391C19.1573 0.362679 18.9409 0.475568 18.7693 0.647221L0.647085 18.7694C0.475431 18.9411 0.362543 19.1574 0.333254 19.3709C0.303966 19.5844 0.360676 19.7775 0.49091 19.9077C0.621143 20.0379 0.814232 20.0946 1.0277 20.0653C1.24117 20.0361 1.45752 19.9232 1.62918 19.7515Z" fill="currentColor"></path>
    <path d="M18.7693 19.7515L0.647062 1.62931C0.475408 1.45766 0.36252 1.2413 0.333232 1.02784C0.303943 0.814369 0.360654 0.62128 0.490887 0.491046C0.621121 0.360813 0.814209 0.304102 1.02768 0.333391C1.24114 0.362679 1.4575 0.475568 1.62915 0.647221L19.7514 18.7694C19.923 18.9411 20.0359 19.1574 20.0652 19.3709C20.0945 19.5844 20.0378 19.7775 19.9075 19.9077C19.7773 20.0379 19.5842 20.0946 19.3707 20.0653C19.1573 20.0361 18.9409 19.9232 18.7693 19.7515Z" fill="currentColor"></path>
  </symbol>
  <symbol fill="none" xmlns="http://www.w3.org/2000/svg" viewBox="0 0 12 12" id="ic_link">
    <path d="M0 0.805054H11.0365V11.833" stroke="currentColor"></path>
    <path d="M1 10.8305L11.0332 0.805054" stroke="currentColor"></path>
  </symbol>
  <symbol fill="none" xmlns="http://www.w3.org/2000/svg" viewBox="0 0 25 25" id="ic_menu">
    <path d="M22.2209 20.1389H2.77648C2.5923 20.1389 2.41566 20.0657 2.28543 19.9355C2.1552 19.8053 2.08203 19.6286 2.08203 19.4444C2.08203 19.2603 2.1552 19.0836 2.28543 18.9534C2.41566 18.8232 2.5923 18.75 2.77648 18.75H22.2209C22.4051 18.75 22.5817 18.8232 22.712 18.9534C22.8422 19.0836 22.9154 19.2603 22.9154 19.4444C22.9154 19.6286 22.8422 19.8053 22.712 19.9355C22.5817 20.0657 22.4051 20.1389 22.2209 20.1389Z" fill="currentColor"></path>
    <path d="M22.2209 13.1944H2.77648C2.5923 13.1944 2.41566 13.1213 2.28543 12.991C2.1552 12.8608 2.08203 12.6842 2.08203 12.5C2.08203 12.3158 2.1552 12.1392 2.28543 12.0089C2.41566 11.8787 2.5923 11.8055 2.77648 11.8055H22.2209C22.4051 11.8055 22.5817 11.8787 22.712 12.0089C22.8422 12.1392 22.9154 12.3158 22.9154 12.5C22.9154 12.6842 22.8422 12.8608 22.712 12.991C22.5817 13.1213 22.4051 13.1944 22.2209 13.1944Z" fill="currentColor"></path>
    <path d="M22.2209 6.24997H2.77648C2.5923 6.24997 2.41566 6.17681 2.28543 6.04657C2.1552 5.91634 2.08203 5.73971 2.08203 5.55553C2.08203 5.37135 2.1552 5.19472 2.28543 5.06448C2.41566 4.93425 2.5923 4.86108 2.77648 4.86108H22.2209C22.4051 4.86108 22.5817 4.93425 22.712 5.06448C22.8422 5.19472 22.9154 5.37135 22.9154 5.55553C22.9154 5.73971 22.8422 5.91634 22.712 6.04657C22.5817 6.17681 22.4051 6.24997 22.2209 6.24997Z" fill="currentColor"></path>
  </symbol>
  <symbol fill="none" xmlns="http://www.w3.org/2000/svg" viewBox="0 0 72 163" id="ic_slider_arr">
    <path fill-rule="evenodd" clip-rule="evenodd" d="M67.2027 77.8791L0.0434287 1.98814L2.29005 0L71.1308 77.791L2.33348 162.937L0 161.051L67.2027 77.8791Z" fill="currentColor"></path>
    <path d="M70.4756 77.8057L2.25781 162.232L0.702148 160.976L67.5918 78.1934L67.8574 77.8643L67.5771 77.5479L0.748047 2.03125L2.24609 0.705078L70.4756 77.8057Z" stroke="#AEAEAE" stroke-opacity="0.6"></path>
  </symbol>
</svg>